<svg width="92" height="75" viewBox="0 0 92 75" fill="none" xmlns="http://www.w3.org/2000/svg">
<path d="M60.5416 28.7839C62.5176 28.7839 64.1194 27.1876 64.1194 25.2186C64.1194 23.2495 62.5176 21.6533 60.5416 21.6533C58.5657 21.6533 56.9639 23.2495 56.9639 25.2186C56.9639 27.1876 58.5657 28.7839 60.5416 28.7839Z" fill="white"/>
<path d="M31.527 28.7839C33.5029 28.7839 35.1047 27.1876 35.1047 25.2186C35.1047 23.2495 33.5029 21.6533 31.527 21.6533C29.551 21.6533 27.9492 23.2495 27.9492 25.2186C27.9492 27.1876 29.551 28.7839 31.527 28.7839Z" fill="white"/>
<path d="M84.1016 13.7067C82.1308 12.8164 79.8962 11.8069 77.2977 9.54958C75.9617 8.38933 75.1909 7.43588 74.5101 6.59447C73.4256 5.25392 72.4013 3.98672 69.993 3.00372C66.8272 1.71309 62.7148 1.57863 60.4301 2.691C60.2584 2.77452 60.104 2.86417 59.9609 2.95584C56.1174 0.960305 51.4796 -0.0349168 46.0782 0.00990386V0.00888577C46.07 0.00888577 46.0629 0.00990442 46.0547 0.00888577C46.0516 0.00888577 46.0496 0.0078667 46.0465 0.0078667C46.0435 0.0078667 46.0404 0.00888577 46.0363 0.00888577C46.0343 0.00888577 46.0312 0.00888577 46.0292 0.00888577C45.8431 0.0109231 45.6693 -0.00333843 45.4813 0.000736173V0.0160163C40.1984 -0.0237111 35.6373 0.92669 31.8388 2.83768C31.7508 2.78777 31.667 2.73684 31.5709 2.68998C29.2842 1.57863 25.1729 1.71207 22.0081 3.00372C19.6008 3.9857 18.5755 5.25291 17.4909 6.59345C16.8101 7.43486 16.0394 8.38831 14.7034 9.54856C12.1049 11.8059 9.87032 12.8154 7.89949 13.7057C5.26217 14.8965 2.77103 16.0221 1.11607 19.5059C0.0764719 21.6929 -0.0553942 23.772 0.0161609 25.1299C0.275804 30.0968 2.98365 33.6437 5.87141 36.7374C6.51848 37.4311 7.04287 37.9812 7.47834 38.4375C9.13841 40.1794 9.27437 40.322 10.0196 41.8398C10.8895 43.6113 11.2125 45.2941 11.4476 46.5236C11.7359 48.0281 12.063 49.7334 13.7895 50.1174C13.9428 50.152 14.1227 50.1754 14.3231 50.1754C14.7913 50.1754 15.3709 50.044 15.9944 49.5979C17.8211 48.293 19.5548 44.523 19.9943 40.9454C21.7413 47.3854 24.6158 54.3753 27.2143 56.2588L27.2582 56.1987C28.9295 59.4075 32.0299 61.6302 34.8032 62.5225C35.1293 62.6295 35.4635 62.7028 35.7998 62.7629L35.7579 62.7915C36.3304 63.6084 37.0531 64.3327 37.9046 64.9591V66.8915C37.9046 71.3624 41.5498 75 46.0312 75C50.5187 75 54.168 71.3624 54.168 66.8915V64.9581C55.0328 64.3215 55.7688 63.5829 56.3239 62.7782L56.2585 62.7334C56.5938 62.6906 56.9249 62.6254 57.2469 62.5225C60.2093 61.5731 63.5326 59.1162 65.1057 55.5641C67.6357 52.8606 70.2945 45.9674 71.8452 39.8687C71.8902 40.156 71.9464 40.4412 71.9781 40.7315C72.3737 44.3712 74.1432 48.2655 76.0056 49.5969C76.6292 50.042 77.2078 50.1744 77.6759 50.1744C77.8763 50.1744 78.0572 50.151 78.2116 50.1164C79.9371 49.7323 80.2642 48.0271 80.5525 46.5226C80.7876 45.2931 81.1106 43.6102 81.9805 41.8388C82.7257 40.321 82.8616 40.1794 84.5217 38.4365C84.9562 37.9802 85.4816 37.4301 86.1286 36.7364C89.0164 33.6427 91.7242 30.0958 91.9839 25.1288C92.0554 23.77 91.9225 21.6909 90.884 19.5038C89.23 16.0231 86.7399 14.8975 84.1016 13.7067ZM15.9586 40.2955C15.8114 41.6473 15.4567 42.8646 15.057 43.8466C14.779 42.7261 14.367 41.4232 13.6934 40.0501C12.6722 37.97 12.201 37.4759 10.4448 35.6332C10.0185 35.185 9.50232 34.6441 8.86753 33.9636C5.55248 30.4126 4.2604 27.9617 4.10093 24.919C4.06311 24.1896 4.104 22.7432 4.81342 21.2498C5.82644 19.1178 7.16349 18.5137 9.58921 17.4176C11.7062 16.4611 14.3405 15.2713 17.3918 12.6208C18.9977 11.2253 19.9279 10.0752 20.6751 9.15129C21.6401 7.95844 22.1236 7.35948 23.5578 6.77477C24.809 6.26443 26.0796 6.06375 27.1631 6.02402C26.9628 6.20433 26.7451 6.36527 26.5519 6.55372C21.5583 11.4137 18.8321 18.9365 18.4252 28.9274C18.1717 30.164 17.8548 31.3925 17.5165 32.6913C16.8991 35.0627 16.2602 37.5156 15.9586 40.2955ZM46.0322 70.9274C43.8058 70.9274 41.9945 69.1183 41.9945 66.8936V61.5304C42.7162 61.127 43.3857 60.6706 43.9909 60.198L43.9929 63.8692C43.9929 64.9938 44.9088 65.9055 46.0373 65.9055C46.0373 65.9055 46.0373 65.9055 46.0384 65.9055C47.1669 65.9055 48.0828 64.9928 48.0818 63.8671L48.0797 60.1205C48.5878 60.4516 49.2686 60.8672 50.0802 61.2777V66.8925C50.0802 69.1183 48.2637 70.9274 46.0322 70.9274ZM65.5984 46.0489C64.7929 43.4778 63.2985 41.4385 61.9031 39.5417L61.806 39.4093C61.1395 38.5017 59.8597 38.3051 58.9489 38.9703C58.0381 39.6355 57.8409 40.9098 58.5084 41.8174L58.6065 41.9498C61.0107 45.2187 62.91 47.802 61.7743 52.7251C61.0772 55.7444 58.2917 57.9111 55.9978 58.6455C54.9081 58.9929 52.4538 58.1383 50.163 56.6113C49.9013 56.4371 49.613 56.3373 49.3207 56.2955L49.5313 56.0724C49.3105 55.8605 49.0978 55.6578 48.9036 55.4561C48.5632 55.1057 48.2842 54.7889 48.0767 54.5455V51.9051C48.7043 51.5394 50.6189 49.4624 52.0367 47.8733C53.248 46.5144 53.7673 44.635 53.2716 42.886C53.198 42.6272 53.1111 42.3919 53.0068 42.1984C51.5317 39.4603 40.5378 39.4603 39.0628 42.1984C38.9585 42.3919 38.8716 42.6272 38.798 42.886C38.3022 44.636 38.8215 46.5144 40.0328 47.8733C41.4466 49.4593 43.3561 51.5313 43.9888 51.9031V54.5506C43.7833 54.793 43.5022 55.1098 43.1557 55.4643C42.2326 56.4269 40.7913 57.7165 39.1619 58.395H39.1609C39.1588 58.396 39.1568 58.396 39.1558 58.397C38.5619 58.6435 37.9986 58.7831 37.5724 58.8065C37.5713 58.8065 37.5703 58.8065 37.5703 58.8065C37.5202 58.8065 37.4701 58.8085 37.4211 58.8116C36.957 58.8452 36.5072 58.7922 36.0728 58.6496C33.7779 57.9111 30.9903 55.7424 30.2921 52.7272C29.1575 47.804 31.0588 45.2217 33.4651 41.9529L34.0038 41.2174C34.6662 40.3057 34.4618 39.0324 33.5479 38.3723C32.634 37.7133 31.3552 37.916 30.6929 38.8267L30.1685 39.5428C28.6372 41.6228 26.9904 43.8761 26.2595 46.8119C24.302 41.8643 22.4518 35.2186 22.4589 31.4924C22.4763 21.3527 24.8161 13.942 29.413 9.46809C32.8773 6.09635 37.785 4.31575 43.9796 4.10896L43.9571 6.88886C43.95 8.01345 44.8587 8.93228 45.9883 8.93941C45.9924 8.93941 45.9975 8.93941 46.0026 8.93941C47.125 8.93941 48.0388 8.03586 48.047 6.91535L48.0654 4.10285C48.7493 4.13341 49.4066 4.19758 50.0577 4.26889L50.0414 5.69093C50.0291 6.81552 50.9348 7.73842 52.0633 7.75064C52.0705 7.75064 52.0786 7.75064 52.0858 7.75064C53.2041 7.75064 54.1169 6.85321 54.1302 5.73575L54.1384 5.04204C57.3257 5.92216 60.0192 7.38494 62.1526 9.46096C66.7505 13.9359 69.0903 21.3456 69.1077 31.4852C69.1118 35.025 67.4436 41.1991 65.5984 46.0489ZM87.9022 24.919C87.7427 27.9607 86.4517 30.4126 83.1356 33.9626C82.4998 34.643 81.9846 35.1839 81.5583 35.6322C79.8021 37.4749 79.3299 37.97 78.3097 40.049C77.6361 41.4212 77.2241 42.725 76.9461 43.8456C76.5464 42.8636 76.1917 41.6453 76.0445 40.2945C75.7552 37.6369 75.0131 35.2777 74.2944 32.9969C73.8385 31.5494 73.4102 30.1803 73.1322 28.8388C72.7131 18.8886 69.9889 11.3923 65.0086 6.54456C64.8124 6.35407 64.5936 6.1921 64.3912 6.00976C65.5586 6.00365 67.0193 6.19108 68.4453 6.77273C69.8795 7.35846 70.363 7.95743 71.328 9.14925C72.0752 10.0732 73.0054 11.2232 74.6113 12.6188C77.6626 15.2703 80.2979 16.4601 82.4139 17.4156C84.8396 18.5117 86.1767 19.1157 87.1897 21.2478C87.8991 22.7432 87.94 24.1896 87.9022 24.919Z" fill="white"/>
</svg>
